<svg xmlns="http://www.w3.org/2000/svg" version="1.1" xmlns:xlink="http://www.w3.org/1999/xlink" xmlns:svgjs="http://svgjs.dev/svgjs" width="327.77437" height="328.0006"><svg xmlns:xl="http://www.w3.org/1999/xlink" xmlns:dc="http://purl.org/dc/elements/1.1/" version="1.1" xmlns="http://www.w3.org/2000/svg" viewBox="171.11281 166.9997 327.77437 328.0006" width="327.77437" height="328.0006">
  <defs></defs>
  <g id="SvgjsG1013" stroke="none" stroke-dasharray="none" fill-opacity="1" fill="none" stroke-opacity="1">
    <title>Canvas 1</title>
    <rect fill="white" x="171.11281" y="166.9997" width="327.77437" height="328.0006"></rect>
    <g id="SvgjsG1012">
      <title>Layer 1</title>
      <g id="SvgjsG1011">
        <title>Graphic_19</title>
        <g id="SvgjsG1010">
          <circle cx="335" cy="330.8869" r="163.887366384453" fill="#ffca25"></circle>
        </g>
      </g>
      <g id="SvgjsG1009">
        <title>Graphic_18</title>
        <g id="SvgjsG1008">
          <path d="M 395.37713 290.16548 C 396.2736 290.00145 397.08245 289.7812 397.76735 289.49313 C 403.89166 286.9173 407.6076 281.93934 407.585 269.80483 C 407.56233 257.67032 403.12275 251.71006 398.7658 250.25775 C 397.39506 249.80083 395.7879 249.49215 393.97464 249.3347 C 398.08357 259.4406 399.29206 267.24335 398.4083 275.46674 C 398.08716 278.4549 397.50426 281.52953 396.5625 285.45423 C 396.3528 286.32794 395.88054 288.19265 395.37713 290.16548 Z M 231.18902 457.7581 C 263.34617 484.23913 303.2319 496.5982 342.6031 494.83523 C 348.3031 486.22493 348.87876 483.42515 351.5676 474.30226 C 354.69566 463.6892 358.2706 464.3595 359.991 454.8413 C 361.71147 445.32303 365.5098 443.2228 365.5098 443.2228 C 365.5098 443.2228 390.84317 450.56073 400.53094 450.0869 C 403.3729 449.8773 418.9212 448.8362 424.9298 436.0866 C 430.93837 423.337 417.78803 390.16413 416.04163 383.6872 C 414.29525 377.21023 407.13276 363.79544 405.93354 361.2054 C 404.0594 357.64873 399.95724 355.29633 398.32343 352.89817 C 396.58065 350.57447 393.8503 340.69874 393.2694 339.82736 C 392.68846 338.95597 390.0743 329.89353 389.49336 326.408 C 388.91243 322.92244 383.1032 302.8174 381.3604 301.36508 C 379.61765 299.91277 375.60927 289.22375 375.60927 289.22375 C 375.60927 289.22375 385.12145 290.9117 392.2911 290.51034 C 392.8867 288.18117 393.49463 285.79084 393.73804 284.77648 C 394.6532 280.96263 395.21446 278.00223 395.5203 275.15637 C 396.38456 267.1145 395.121 259.48917 390.7806 249.2128 C 387.47795 249.2304 383.675 249.6519 379.50146 250.49012 C 371.3391 252.12948 364.33933 253.5797 364.33933 253.5797 C 364.33933 253.5797 362.3917 250.0624 358.9948 249.8511 C 355.9349 249.97614 355.95506 251.5728 355.7066 252.68792 C 354.95587 252.68817 355.7324 252.5722 354.11505 252.8719 C 354.0264 252.24667 353.96417 251.01435 352.56246 250.12048 C 351.16075 249.2266 344.4136 249.38636 344.4136 249.38636 C 344.4136 249.38636 344.23933 249.0378 344.23933 248.74734 C 344.23933 248.45688 341.2766 248.63116 339.24337 248.63116 C 337.21014 248.63116 333.6069 248.84637 331.80753 248.9797 C 330.00817 249.11306 329.6581 249.27017 329.6581 249.27017 C 329.6581 249.27017 327.7347 249.996 328.322 252.63954 C 327.47496 253.8651 325.06318 253.33478 323.44222 252.29098 C 322.71512 250.4545 321.89433 248.89726 322.1061 247.87596 C 322.31785 246.85465 321.1517 248.27953 317.74915 237.23603 C 314.3466 226.19253 305.72164 218.80056 298.28817 215.45135 C 290.8547 212.10214 279.11765 209.35164 271.8561 209.6421 C 264.59453 209.93257 253.55696 211.09442 241.648 222.132 C 229.73904 233.16956 227.07082 248.84878 228.5191 261.92533 C 229.9674 275.0019 234.33518 280.83956 237.52344 285.51088 C 238.89146 287.44616 243.39078 297.6522 243.39078 297.6522 L 237.63962 301.83487 C 237.63962 301.83487 225.71858 302.5642 219.68905 305.14614 C 213.6595 307.7281 214.34454 314.61522 213.1827 315.77707 C 212.02084 316.93892 206.62974 317.3352 204.87546 324.43285 C 204.06846 327.6979 203.91788 330.5283 203.76435 332.80265 C 214.64756 335.2903 220.04658 336.89087 225.42396 339.2263 C 232.7639 342.4141 237.95457 346.5547 241.81507 352.5629 C 249.516 342.9108 259.3645 334.71503 270.10904 329.7648 C 279.8893 325.2588 290.0726 323.53835 300.36383 324.95816 C 300.80572 323.12127 301.37947 323.21423 301.79093 321.44413 C 302.22877 319.56053 302.1395 319.0298 301.44238 317.2615 C 300.74527 315.49316 298.2473 310.9294 298.2473 310.9294 L 300.04816 309.4771 C 300.04816 309.4771 310.14472 309.67406 312.42186 309.65136 C 314.699 309.62866 319.35737 309.6121 321.3681 305.93344 C 323.37883 302.25477 321.43073 300.19066 321.13573 295.76726 C 323.00703 293.3736 323.01123 294.08526 323.22706 292.63026 C 323.4429 291.17526 322.8204 289.84183 322.8204 289.84183 L 323.86607 286.53055 L 324.79425 281.6557 L 328.41645 279.86475 C 328.41645 279.86475 332.89717 285.08248 340.3848 288.40633 C 349.58333 291.5506 349.8282 299.08344 349.8282 299.08344 C 349.8282 299.08344 352.19187 305.27627 352.3228 308.6806 C 351.2896 313.55577 355.7859 322.46924 357.1445 325.8179 C 358.5907 329.33896 361.5363 339.31326 362.6052 342.14187 C 363.17394 345.6306 364.6384 350.85573 364.6384 350.85573 C 364.6384 350.85573 365.02824 358.90675 366.2152 361.60285 C 363.64794 369.8091 365.87473 373.24616 365.81024 375.0339 C 362.23395 372.64603 363.87427 372.4226 355.6831 370.406 C 354.35223 369.782 349.18816 365.09687 346.40596 363.67737 C 343.62376 362.25786 335.981 359.2638 331.24383 355.95107 C 331.01993 353.58256 330.00372 350.8983 328.74585 348.0505 C 327.48797 345.2027 326.8027 342.41713 322.41376 339.80136 C 320.23605 338.50347 318.24573 337.5067 316.79298 336.8318 C 316.05217 336.9958 315.25283 336.92015 314.5175 336.56255 C 300.40813 329.70115 286.40168 329.9338 273.02607 336.09622 C 261.93318 341.20695 251.7365 350.29517 244.33225 360.82163 C 244.95604 367.1675 245.213 373.68876 245.11916 380.37195 C 244.77108 405.16063 239.7023 431.32417 231.18902 457.7581 Z M 172.17796 347.7182 C 175.84798 383.9672 191.56908 419.22673 219.34125 446.99876 C 221.6431 449.30063 223.99638 451.5197 226.3974 453.656 C 234.29954 428.522 238.98155 403.71553 239.3105 380.2904 C 239.40138 373.8173 238.19856 361.47325 238.19856 361.47325 C 238.19856 361.47325 239.59124 369.7692 238.22918 361.60285 C 236.86712 353.4365 230.21272 347.63956 223.1098 344.5547 C 218.08226 342.37123 212.8374 340.82857 202.06632 338.37425 C 199.766 339.99506 197.33356 337.18306 193.7217 337.50366 C 190.06858 337.8279 189.75299 339.11153 188.02864 339.88545 C 186.3043 340.65936 182.55566 340.23986 177.68818 343.3129 C 175.15038 344.91513 173.67385 346.4425 172.17796 347.7182 Z" fill="black"></path>
        </g>
      </g>
    </g>
  </g>
</svg><style>@media (prefers-color-scheme: light) { :root { filter: none; } }
@media (prefers-color-scheme: dark) { :root { filter: none; } }
</style></svg>