<?xml version="1.0" encoding="UTF-8" standalone="no"?>
<!DOCTYPE svg PUBLIC "-//W3C//DTD SVG 1.1//EN" "http://www.w3.org/Graphics/SVG/1.1/DTD/svg11.dtd">
<svg xmlns:dc="http://purl.org/dc/elements/1.1/" xmlns="http://www.w3.org/2000/svg" version="1.1" xmlns:xl="http://www.w3.org/1999/xlink" viewBox="16.876749 114.92625 84.70437 92.39833" width="84.70437" height="92.39833">
  <defs/>
  <g id="Canvas_1" fill-opacity="1" stroke="none" stroke-opacity="1" stroke-dasharray="none" fill="none">
    <title>Canvas 1</title>
    <g id="Canvas_1_Layer_1">
      <title>Layer 1</title>
      <g id="Group_2">
        <g id="Graphic_19">
          <rect x="17.876749" y="115.92625" width="82.70437" height="90.39833" stroke="#6e777a" stroke-linecap="round" stroke-linejoin="miter" stroke-width="2"/>
        </g>
        <g id="Group_15">
          <title>Lab</title>
          <g id="Graphic_18">
            <path d="M 27.595017 180.27186 L 30.34028 180.27186 L 30.34028 195.24602 L 34.857486 195.24602 L 34.857486 197.74172 L 27.595017 197.74172 Z" fill="#6e777a"/>
          </g>
          <g id="Graphic_17">
            <path d="M 38.40137 180.27186 L 42.119954 180.27186 L 44.965045 197.74172 L 42.21978 197.74172 L 41.720643 194.2727 L 41.720643 194.32261 L 38.601026 194.32261 L 38.101887 197.74172 L 35.55628 197.74172 Z M 41.396203 191.9517 L 40.173313 183.3166 L 40.1234 183.3166 L 38.925466 191.9517 Z" fill="#6e777a"/>
          </g>
          <g id="Graphic_16">
            <path d="M 46.28776 180.27186 L 50.430614 180.27186 C 51.84485 180.27186 52.87639 180.60046 53.525274 181.25766 C 54.17416 181.91486 54.498595 182.9256 54.498595 184.28993 L 54.498595 184.98872 C 54.498595 185.88717 54.353014 186.61924 54.06185 187.18493 C 53.77068 187.75062 53.32562 188.15825 52.72665 188.40782 L 52.72665 188.45773 C 54.09097 188.9236 54.77312 190.13816 54.77312 192.10145 L 54.77312 193.59886 C 54.77312 194.94654 54.41957 195.97393 53.71245 196.68105 C 53.005334 197.38816 51.96963 197.74172 50.60531 197.74172 L 46.28776 197.74172 Z M 50.106174 187.38459 C 50.65523 187.38459 51.067014 187.24317 51.34154 186.96032 C 51.61607 186.67747 51.75333 186.2033 51.75333 185.53777 L 51.75333 184.56445 C 51.75333 183.9322 51.641027 183.47467 51.41641 183.19182 C 51.1918 182.90897 50.838246 182.76755 50.355743 182.76755 L 49.033026 182.76755 L 49.033026 187.38459 Z M 50.60531 195.24602 C 51.087816 195.24602 51.44553 195.11708 51.67846 194.8592 C 51.911393 194.6013 52.02786 194.15624 52.02786 193.524 L 52.02786 192.00162 C 52.02786 191.203 51.890596 190.64979 51.61607 190.34198 C 51.34154 190.03418 50.88816 189.88028 50.255915 189.88028 L 49.033026 189.88028 L 49.033026 195.24602 Z" fill="#6e777a"/>
          </g>
        </g>
        <g id="Group_7">
          <title>clarity</title>
          <g id="Graphic_14">
            <path d="M 31.463342 170.94322 C 30.148937 170.94322 29.14651 170.56887 28.45603 169.82015 C 27.765553 169.07144 27.42032 168.01494 27.42032 166.65062 L 27.42032 157.26682 C 27.42032 155.9025 27.765553 154.846 28.45603 154.09728 C 29.14651 153.34857 30.148937 152.97422 31.463342 152.97422 C 32.777747 152.97422 33.780174 153.34857 34.470653 154.09728 C 35.16113 154.846 35.506366 155.9025 35.506366 157.26682 L 35.506366 159.11363 L 32.910845 159.11363 L 32.910845 157.09212 C 32.910845 156.01064 32.453305 155.46992 31.538213 155.46992 C 30.62312 155.46992 30.16558 156.01064 30.16558 157.09212 L 30.16558 166.85028 C 30.16558 167.91511 30.62312 168.44752 31.538213 168.44752 C 32.453305 168.44752 32.910845 167.91511 32.910845 166.85028 L 32.910845 164.17989 L 35.506366 164.17989 L 35.506366 166.65062 C 35.506366 168.01494 35.16113 169.07144 34.470653 169.82015 C 33.780174 170.56887 32.777747 170.94322 31.463342 170.94322 Z" fill="#6e777a"/>
          </g>
          <g id="Graphic_13">
            <path d="M 37.153524 153.2238 L 39.898787 153.2238 L 39.898787 168.19795 L 44.41599 168.19795 L 44.41599 170.69365 L 37.153524 170.69365 Z" fill="#6e777a"/>
          </g>
          <g id="Graphic_12">
            <path d="M 47.95988 153.2238 L 51.67846 153.2238 L 54.52355 170.69365 L 51.77829 170.69365 L 51.27915 167.22463 L 51.27915 167.27455 L 48.15953 167.27455 L 47.660394 170.69365 L 45.114787 170.69365 Z M 50.95471 164.90364 L 49.73182 156.26854 L 49.681906 156.26854 L 48.483973 164.90364 Z" fill="#6e777a"/>
          </g>
          <g id="Graphic_11">
            <path d="M 55.84627 153.2238 L 59.91425 153.2238 C 61.32848 153.2238 62.36003 153.55239 63.00891 154.2096 C 63.65779 154.8668 63.98223 155.87754 63.98223 157.24186 L 63.98223 158.315 C 63.98223 160.12855 63.38327 161.27656 62.18533 161.75906 L 62.18533 161.80898 C 62.85085 162.00863 63.32087 162.41626 63.5954 163.03187 C 63.869926 163.64748 64.00719 164.47105 64.00719 165.5026 L 64.00719 168.5723 C 64.00719 169.07145 64.023825 169.47492 64.0571 169.78272 C 64.09038 170.09052 64.17357 170.39416 64.30667 170.69365 L 61.511494 170.69365 C 61.411666 170.4108 61.345114 170.1446 61.31184 169.89503 C 61.27856 169.64545 61.261924 169.19623 61.261924 168.54735 L 61.261924 165.35286 C 61.261924 164.55424 61.13298 163.99687 60.87509 163.68075 C 60.6172 163.36463 60.17214 163.20657 59.539896 163.20657 L 58.59153 163.20657 L 58.59153 170.69365 L 55.84627 170.69365 Z M 59.58981 160.71087 C 60.138865 160.71087 60.55065 160.56945 60.82518 160.2866 C 61.099706 160.00376 61.23697 159.52958 61.23697 158.86406 L 61.23697 157.51638 C 61.23697 156.88414 61.12466 156.4266 60.90005 156.14375 C 60.675435 155.8609 60.32188 155.71949 59.83938 155.71949 L 58.59153 155.71949 L 58.59153 160.71087 Z" fill="#6e777a"/>
          </g>
          <g id="Graphic_10">
            <rect x="65.903915" y="153.2238" width="2.745263" height="17.469856" fill="#6e777a"/>
          </g>
          <g id="Graphic_9">
            <path d="M 72.84194 155.71949 L 69.971895 155.71949 L 69.971895 153.2238 L 78.45725 153.2238 L 78.45725 155.71949 L 75.58721 155.71949 L 75.58721 170.69365 L 72.84194 170.69365 Z" fill="#6e777a"/>
          </g>
          <g id="Graphic_8">
            <path d="M 82.40045 163.25648 L 79.08118 153.2238 L 82.00114 153.2238 L 83.87291 159.63772 L 83.92282 159.63772 L 85.79459 153.2238 L 88.46499 153.2238 L 85.14571 163.25648 L 85.14571 170.69365 L 82.40045 170.69365 Z" fill="#6e777a"/>
          </g>
        </g>
        <g id="Group_3">
          <title>The</title>
          <g id="Graphic_6">
            <path d="M 29.741314 128.67142 L 26.871266 128.67142 L 26.871266 126.17572 L 35.356624 126.17572 L 35.356624 128.67142 L 32.486577 128.67142 L 32.486577 143.64558 L 29.741314 143.64558 Z" fill="#6e777a"/>
          </g>
          <g id="Graphic_5">
            <path d="M 36.67934 126.17572 L 39.424605 126.17572 L 39.424605 133.28845 L 42.369523 133.28845 L 42.369523 126.17572 L 45.114787 126.17572 L 45.114787 143.64558 L 42.369523 143.64558 L 42.369523 135.78414 L 39.424605 135.78414 L 39.424605 143.64558 L 36.67934 143.64558 Z" fill="#6e777a"/>
          </g>
          <g id="Graphic_4">
            <path d="M 47.161255 126.17572 L 54.648336 126.17572 L 54.648336 128.67142 L 49.90652 128.67142 L 49.90652 133.28845 L 53.675016 133.28845 L 53.675016 135.78414 L 49.90652 135.78414 L 49.90652 141.14989 L 54.648336 141.14989 L 54.648336 143.64558 L 47.161255 143.64558 Z" fill="#6e777a"/>
          </g>
        </g>
      </g>
    </g>
  </g>
</svg>
