<?xml version="1.0" encoding="UTF-8" standalone="no"?>
<!DOCTYPE svg PUBLIC "-//W3C//DTD SVG 1.1//EN" "http://www.w3.org/Graphics/SVG/1.1/DTD/svg11.dtd">
<svg xmlns:dc="http://purl.org/dc/elements/1.1/" xmlns:xl="http://www.w3.org/1999/xlink" version="1.1" xmlns="http://www.w3.org/2000/svg" viewBox="0 0 512 512" width="512" height="512">
  <defs/>
  <g id="Canvas_1" stroke-dasharray="none" fill="none" fill-opacity="1" stroke-opacity="1" stroke="none">
    <title>Canvas 1</title>
    <g id="Canvas_1_Layer_1">
      <title>Layer 1</title>
      <g id="Graphic_3">
        <path d="M 350.3119 192.39123 C 351.71223 192.13501 352.9757 191.79097 354.04554 191.341 C 363.612 187.31742 369.41647 179.54162 369.38117 160.58695 C 369.34576 141.63227 362.41093 132.32207 355.60517 130.05349 C 353.464 129.33976 350.95355 128.85759 348.12115 128.61164 C 354.5395 144.39753 356.4272 156.5858 355.04674 169.43111 C 354.5451 174.09876 353.6346 178.90148 352.1635 185.03204 C 351.83595 186.39682 351.09826 189.30958 350.3119 192.39123 Z M 93.84239 454.17876 C 144.07336 495.54337 206.37674 514.8488 267.8764 512.095 C 276.78007 498.6453 277.67927 494.2719 281.87937 480.0215 C 286.76554 463.4434 292.34977 464.49045 295.0371 449.6226 C 297.72457 434.7546 303.65774 431.47394 303.65774 431.47394 C 303.65774 431.47394 343.22965 442.93613 358.3624 442.196 C 362.80167 441.8686 387.08885 440.24233 396.47456 420.32686 C 405.86023 400.4114 385.3188 348.5938 382.5908 338.47654 C 379.8629 328.3592 368.67475 307.40468 366.8015 303.3589 C 363.874 297.80323 357.46625 294.12867 354.91416 290.38263 C 352.19186 286.7529 347.92693 271.32655 347.01953 269.96542 C 346.11208 268.60427 342.02864 254.4483 341.1212 249.00375 C 340.21374 243.55914 331.13945 212.15413 328.4171 209.88553 C 325.69486 207.61696 319.4336 190.9202 319.4336 190.9202 C 319.4336 190.9202 334.29205 193.55686 345.4914 192.92992 C 346.42174 189.29165 347.37135 185.55784 347.75157 183.97336 C 349.1811 178.01595 350.0578 173.39167 350.53554 168.9463 C 351.88556 156.38452 349.9118 144.4734 343.1319 128.42123 C 337.973 128.44872 332.03263 129.10712 325.51337 130.41646 C 312.76338 132.97722 301.8294 135.24253 301.8294 135.24253 C 301.8294 135.24253 298.78712 129.74834 293.481 129.41828 C 288.7013 129.6136 288.7328 132.10766 288.34468 133.84953 C 287.172 133.84992 288.38498 133.66877 285.8586 134.13692 C 285.72013 133.16028 285.62292 131.23534 283.4334 129.83907 C 281.24385 128.44279 270.7045 128.69234 270.7045 128.69234 C 270.7045 128.69234 270.43227 128.14787 270.43227 127.69416 C 270.43227 127.24045 265.80434 127.51268 262.62834 127.51268 C 259.45234 127.51268 253.8239 127.84885 251.0132 128.05712 C 248.20253 128.26543 247.6557 128.51084 247.6557 128.51084 C 247.6557 128.51084 244.65126 129.64462 245.56865 133.77396 C 244.24553 135.68834 240.47822 134.85996 237.9462 133.22949 C 236.81044 130.36082 235.52833 127.92834 235.85912 126.33302 C 236.1899 124.73769 234.3683 126.96342 229.05336 109.71295 C 223.73842 92.46249 210.26583 80.91589 198.6544 75.68426 C 187.04297 70.45264 168.70915 66.15623 157.36627 66.60994 C 146.02336 67.06367 128.78216 68.878534 110.1798 86.11975 C 91.57745 103.36094 87.40956 127.85261 89.67185 148.2788 C 91.93416 168.70501 98.75684 177.8237 103.73705 185.12053 C 105.87396 188.14353 112.9021 204.08584 112.9021 204.08584 L 103.91853 210.61937 C 103.91853 210.61937 85.2973 211.75862 75.87889 215.79173 C 66.460455 219.82487 67.53052 230.58287 65.71567 232.39774 C 63.90079 234.2126 55.47964 234.8316 52.73937 245.91847 C 51.4788 251.01863 51.24359 255.43985 51.003767 258.9925 C 68.00385 262.87832 76.43737 265.37848 84.83709 269.02653 C 96.30242 274.00603 104.41049 280.47384 110.44077 289.85893 C 122.46999 274.7819 137.8538 261.97972 154.63728 254.24723 C 169.9145 247.20864 185.8213 244.52122 201.89668 246.73903 C 202.58693 243.86972 203.48316 244.01493 204.12588 241.24995 C 204.8098 238.30768 204.67036 237.47865 203.58143 234.7165 C 202.4925 231.95426 198.59056 224.82545 198.59056 224.82545 L 201.4036 222.5569 C 201.4036 222.5569 217.1749 222.86455 220.7319 222.8291 C 224.2889 222.79363 231.56548 222.76777 234.70633 217.02153 C 237.8472 211.27527 234.80416 208.05104 234.34336 201.14148 C 237.26642 197.40247 237.27298 198.51411 237.61012 196.24134 C 237.94727 193.96856 236.9749 191.88568 236.9749 191.88568 L 238.60828 186.7133 L 240.05814 179.09856 L 245.7162 176.30101 C 245.7162 176.30101 252.71528 184.45135 264.4113 189.64336 C 278.77984 194.55486 279.16234 206.3215 279.16234 206.3215 C 279.16234 206.3215 282.8545 215.995 283.05903 221.31272 C 281.44512 228.92796 288.46855 242.85122 290.59075 248.08198 C 292.84978 253.58205 297.45094 269.16237 299.1206 273.5808 C 300.009 279.03035 302.29657 287.19225 302.29657 287.19225 C 302.29657 287.19225 302.9055 299.76832 304.7596 303.97975 C 300.74942 316.7983 304.22777 322.16715 304.12704 324.9597 C 298.5407 321.2297 301.10296 320.8807 288.30797 317.7307 C 286.2291 316.75597 278.16257 309.43758 273.81664 307.22025 C 269.47072 305.0029 257.53237 300.32605 250.1327 295.1514 C 249.78294 291.4517 248.19558 287.25874 246.23072 282.81035 C 244.26586 278.36195 243.19543 274.01076 236.3397 269.9248 C 232.93802 267.89744 229.82905 266.34044 227.55978 265.2862 C 226.4026 265.5424 225.154 265.42422 224.00538 264.86563 C 201.96588 254.1478 180.08715 254.5112 159.19382 264.1372 C 141.8662 272.1204 125.93851 286.31663 114.37273 302.75945 C 115.34712 312.672 115.7485 322.8585 115.60192 333.29797 C 115.0582 372.01905 107.14053 412.8877 93.84239 454.17876 Z M 1.6643457 282.29128 C 7.397089 338.9139 31.954184 393.99095 75.33561 437.37216 C 78.93121 440.9678 82.60715 444.4341 86.35765 447.7711 C 98.70116 408.5106 106.01468 369.76173 106.52852 333.1706 C 106.67048 323.0593 104.79162 303.7773 104.79162 303.7773 C 104.79162 303.7773 106.96705 316.73597 104.83945 303.97975 C 102.71184 291.22353 92.31736 282.16844 81.22227 277.34974 C 73.36901 273.93906 65.176296 271.52935 48.351364 267.6956 C 44.758157 270.22737 40.95857 265.8349 35.316677 266.3357 C 29.610332 266.84217 29.117366 268.84726 26.42385 270.05616 C 23.73035 271.26504 17.8748 270.60976 10.271568 275.41 C 6.307405 277.91275 4.000996 280.29858 1.6643457 282.29128 Z" fill="black"/>
      </g>
    </g>
  </g>
</svg>
