<?xml version="1.0" encoding="UTF-8" standalone="no"?>
<!DOCTYPE svg PUBLIC "-//W3C//DTD SVG 1.1//EN" "http://www.w3.org/Graphics/SVG/1.1/DTD/svg11.dtd">
<svg xmlns:xl="http://www.w3.org/1999/xlink" xmlns:dc="http://purl.org/dc/elements/1.1/" xmlns="http://www.w3.org/2000/svg" version="1.1" viewBox="0 0 1479 328" width="1479" height="328">
  <defs/>
  <g id="Canvas_1" stroke="none" fill="none" stroke-dasharray="none" fill-opacity="1" stroke-opacity="1">
    <title>Canvas 1</title>
    <rect x="0" y="0" width="1479" height="328"/>
    <g id="Canvas_1_seeker-lockup">
      <title>seeker-lockup</title>
      <g id="Group_7">
        <title>Clarity-Lab</title>
        <g id="Graphic_17">
          <title>Path</title>
          <path d="M 427.232 262.92 C 411.85333 262.92 400.12467 258.54 392.046 249.78 C 383.96733 241.02 379.928 228.65867 379.928 212.696 L 379.928 102.904 C 379.928 86.94133 383.96733 74.58 392.046 65.82 C 400.12467 57.06 411.85333 52.68 427.232 52.68 C 442.61067 52.68 454.33933 57.06 462.418 65.82 C 470.49667 74.58 474.536 86.94133 474.536 102.904 L 474.536 124.512 L 444.168 124.512 L 444.168 100.86 C 444.168 88.20667 438.81467 81.88 428.108 81.88 C 417.40133 81.88 412.048 88.20667 412.048 100.86 L 412.048 215.032 C 412.048 227.49067 417.40133 233.72 428.108 233.72 C 438.81467 233.72 444.168 227.49067 444.168 215.032 L 444.168 183.788 L 474.536 183.788 L 474.536 212.696 C 474.536 228.65867 470.49667 241.02 462.418 249.78 C 454.33933 258.54 442.61067 262.92 427.232 262.92 Z" fill="black"/>
        </g>
        <g id="Graphic_16">
          <title>Path</title>
          <path d="M 493.808 55.6 L 525.928 55.6 L 525.928 230.8 L 578.78 230.8 L 578.78 260 L 493.808 260 Z" fill="black"/>
        </g>
        <g id="Graphic_15">
          <title>Shape</title>
          <path d="M 620.244 55.6 L 663.752 55.6 L 697.04 260 L 664.92 260 L 659.08 219.412 L 659.08 219.996 L 622.58 219.996 L 616.74 260 L 586.956 260 Z M 655.284 192.256 L 640.976 91.224 L 640.392 91.224 L 626.376 192.256 Z" fill="black"/>
        </g>
        <g id="Graphic_14">
          <title>Shape</title>
          <path d="M 712.516 55.6 L 760.112 55.6 C 776.6587 55.6 788.728 59.44467 796.32 67.134 C 803.912 74.82333 807.708 86.64933 807.708 102.612 L 807.708 115.168 C 807.708 136.38667 800.7 149.81867 786.684 155.464 L 786.684 156.048 C 794.4707 158.384 799.97 163.15333 803.182 170.356 C 806.394 177.55867 808 187.19467 808 199.264 L 808 235.18 C 808 241.02 808.1947 245.74067 808.584 249.342 C 808.9733 252.94333 809.9467 256.496 811.504 260 L 778.8 260 C 777.632 256.69067 776.8533 253.576 776.464 250.656 C 776.0747 247.736 775.88 242.48 775.88 234.888 L 775.88 197.512 C 775.88 188.168 774.3713 181.64667 771.354 177.948 C 768.3367 174.24933 763.1293 172.4 755.732 172.4 L 744.636 172.4 L 744.636 260 L 712.516 260 Z M 756.316 143.2 C 762.74 143.2 767.558 141.54533 770.77 138.236 C 773.982 134.92667 775.588 129.37867 775.588 121.592 L 775.588 105.824 C 775.588 98.42667 774.274 93.07333 771.646 89.764 C 769.018 86.45467 764.8813 84.8 759.236 84.8 L 744.636 84.8 L 744.636 143.2 Z" fill="black"/>
        </g>
        <g id="Graphic_13">
          <title>Path</title>
          <rect x="835.192" y="55.6" width="32.12" height="204.4" fill="black"/>
        </g>
        <g id="Graphic_12">
          <title>Path</title>
          <path d="M 916.368 84.8 L 882.788 84.8 L 882.788 55.6 L 982.068 55.6 L 982.068 84.8 L 948.488 84.8 L 948.488 260 L 916.368 260 Z" fill="black"/>
        </g>
        <g id="Graphic_11">
          <title>Path</title>
          <path d="M 1028.204 172.984 L 989.368 55.6 L 1023.532 55.6 L 1045.432 130.644 L 1046.016 130.644 L 1067.916 55.6 L 1099.16 55.6 L 1060.324 172.984 L 1060.324 260 L 1028.204 260 Z" fill="black"/>
        </g>
        <g id="Graphic_10">
          <title>Path</title>
          <path d="M 1160.48 55.6 L 1192.6 55.6 L 1192.6 230.8 L 1245.452 230.8 L 1245.452 260 L 1160.48 260 Z" fill="black"/>
        </g>
        <g id="Graphic_9">
          <title>Shape</title>
          <path d="M 1286.916 55.6 L 1330.424 55.6 L 1363.712 260 L 1331.592 260 L 1325.752 219.412 L 1325.752 219.996 L 1289.252 219.996 L 1283.412 260 L 1253.628 260 Z M 1321.956 192.256 L 1307.648 91.224 L 1307.064 91.224 L 1293.048 192.256 Z" fill="black"/>
        </g>
        <g id="Graphic_8">
          <title>Shape</title>
          <path d="M 1379.188 55.6 L 1427.66 55.6 C 1444.2067 55.6 1456.276 59.44467 1463.868 67.134 C 1471.46 74.82333 1475.256 86.64933 1475.256 102.612 L 1475.256 110.788 C 1475.256 121.3 1473.5527 129.86533 1470.146 136.484 C 1466.7393 143.10267 1461.532 147.872 1454.524 150.792 L 1454.524 151.376 C 1470.4867 156.82667 1478.468 171.03733 1478.468 194.008 L 1478.468 211.528 C 1478.468 227.296 1474.3313 239.31667 1466.058 247.59 C 1457.7847 255.86333 1445.6667 260 1429.704 260 L 1379.188 260 Z M 1423.864 138.82 C 1430.288 138.82 1435.106 137.16533 1438.318 133.856 C 1441.53 130.54667 1443.136 124.99867 1443.136 117.212 L 1443.136 105.824 C 1443.136 98.42667 1441.822 93.07333 1439.194 89.764 C 1436.566 86.45467 1432.4293 84.8 1426.784 84.8 L 1411.308 84.8 L 1411.308 138.82 Z M 1429.704 230.8 C 1435.3493 230.8 1439.5347 229.29133 1442.26 226.274 C 1444.9853 223.25667 1446.348 218.04933 1446.348 210.652 L 1446.348 192.84 C 1446.348 183.496 1444.742 177.02333 1441.53 173.422 C 1438.318 169.82067 1433.0133 168.02 1425.616 168.02 L 1411.308 168.02 L 1411.308 230.8 Z" fill="black"/>
        </g>
      </g>
      <g id="Graphic_19">
        <circle cx="163.8866" cy="163.88676" r="163.887022565427" fill="#ffca25"/>
      </g>
      <g id="Graphic_18">
        <title>Seeker</title>
        <path d="M 224.26373 123.16535 C 225.16022 123.00132 225.96905 122.78106 226.65395 122.493 C 232.77826 119.91718 236.4942 114.93921 236.47158 102.8047 C 236.44893 90.67019 232.00935 84.70993 227.6524 83.25762 C 226.28166 82.8007 224.67452 82.49202 222.86124 82.33458 C 226.97017 92.44047 228.17866 100.24322 227.2949 108.46661 C 226.97376 111.45478 226.39086 114.5294 225.44908 118.4541 C 225.23942 119.32781 224.76714 121.19252 224.26373 123.16535 Z M 60.07562 290.75797 C 92.23277 317.239 132.11849 329.59806 171.48968 327.8351 C 177.18971 319.2248 177.76536 316.42502 180.45421 307.30213 C 183.58226 296.68908 187.1572 297.35938 188.87762 287.84115 C 190.59807 278.3229 194.3964 276.22266 194.3964 276.22266 C 194.3964 276.22266 219.72977 283.5606 229.41754 283.08676 C 232.2595 282.87716 247.8078 281.83606 253.81638 269.08647 C 259.82497 256.33687 246.67463 223.164 244.92823 216.68705 C 243.18185 210.2101 236.01936 196.79531 234.82014 194.20526 C 232.946 190.6486 228.84384 188.2962 227.21003 185.89804 C 225.46725 183.57434 222.7369 173.69861 222.15598 172.82723 C 221.57506 171.95584 218.96088 162.8934 218.37996 159.40786 C 217.79903 155.92231 211.98979 135.81726 210.247 134.36495 C 208.50425 132.91264 204.49587 122.22362 204.49587 122.22362 C 204.49587 122.22362 214.00805 123.91156 221.1777 123.51021 C 221.7733 121.18104 222.38123 118.79071 222.62464 117.77635 C 223.5398 113.9625 224.10106 111.0021 224.4069 108.15624 C 225.27116 100.11436 224.00758 92.48904 219.6672 82.21266 L 219.6672 82.21266 C 216.36455 82.23028 212.56158 82.65176 208.38806 83.48999 C 200.2257 85.12935 193.22593 86.57956 193.22593 86.57956 C 193.22593 86.57956 191.2783 83.06226 187.88142 82.85097 C 184.8215 82.97601 184.84166 84.57266 184.5932 85.68779 C 183.84247 85.68804 184.619 85.57208 183.00165 85.87178 C 182.913 85.24654 182.85077 84.01422 181.44906 83.12035 C 180.04735 82.22648 173.3002 82.38623 173.3002 82.38623 C 173.3002 82.38623 173.12593 82.037675 173.12593 81.74721 C 173.12593 81.45675 170.16321 81.63103 168.12997 81.63103 C 166.09674 81.63103 162.4935 81.84624 160.69413 81.97958 C 158.89477 82.112925 158.54471 82.27004 158.54471 82.27004 C 158.54471 82.27004 156.62131 82.99586 157.20859 85.63941 C 156.36156 86.86497 153.94978 86.33465 152.32882 85.29085 C 151.60172 83.45438 150.78093 81.89713 150.99269 80.87583 C 151.20445 79.85452 150.03831 81.2794 146.63575 70.2359 C 143.2332 59.1924 134.60824 51.80043 127.17477 48.45122 C 119.74131 45.10201 108.00425 42.35151 100.74269 42.641973 C 93.48113 42.932435 82.44356 44.094285 70.5346 55.131856 C 58.625645 66.16943 55.95742 81.84865 57.4057 94.9252 C 58.85399 108.00177 63.221785 113.83943 66.41004 118.51075 C 67.77806 120.44603 72.27738 130.65208 72.27738 130.65208 L 66.52622 134.83474 C 66.52622 134.83474 54.605184 135.56406 48.575646 138.14601 C 42.546105 140.72797 43.23114 147.61509 42.06929 148.77694 C 40.90744 149.93879 35.51634 150.33508 33.762063 157.43272 C 32.95506 160.69777 32.80448 163.52816 32.65095 165.80252 C 43.53416 168.29015 48.93318 169.89074 54.31056 172.22617 C 61.65051 175.41396 66.84117 179.55458 70.701674 185.56275 C 78.40261 175.91066 88.25109 167.7149 98.99564 162.76465 C 108.7759 158.25867 118.95919 156.53822 129.25043 157.95803 C 129.69232 156.12114 130.26607 156.2141 130.67753 154.444 C 131.11537 152.5604 131.02609 152.02966 130.32898 150.26135 C 129.63187 148.49303 127.13389 143.92926 127.13389 143.92926 L 128.93476 142.47695 C 128.93476 142.47695 139.03132 142.67393 141.30846 142.65123 C 143.58559 142.62853 148.24397 142.61198 150.2547 138.93331 C 152.26543 135.25464 150.31733 133.19053 150.02233 128.76713 C 151.89363 126.37346 151.89783 127.08513 152.11366 125.63013 C 152.32949 124.17513 151.70701 122.8417 151.70701 122.8417 L 152.75267 119.53042 L 153.68085 114.65557 L 157.30305 112.86462 C 157.30305 112.86462 161.78377 118.08235 169.2714 121.4062 C 178.46993 124.55046 178.7148 132.08331 178.7148 132.08331 C 178.7148 132.08331 181.07847 138.27614 181.20942 141.68047 C 180.17621 146.55564 184.6725 155.46911 186.0311 158.81775 C 187.47728 162.33883 190.4229 172.31313 191.49178 175.14174 C 192.06054 178.63048 193.52502 183.8556 193.52502 183.8556 C 193.52502 183.8556 193.91484 191.90662 195.10182 194.60272 C 192.53454 202.80896 194.76133 206.24603 194.69684 208.03378 C 191.12055 205.6459 192.76087 205.42246 184.56968 203.40587 C 183.23883 202.78189 178.07476 198.09674 175.29256 196.67724 C 172.51036 195.25773 164.8676 192.26365 160.13043 188.95094 C 159.90653 186.58243 158.89032 183.89817 157.63245 181.05036 C 156.37457 178.20255 155.6893 175.417 151.30036 172.80123 C 149.12265 171.50334 147.13233 170.50658 145.67958 169.83166 C 144.93877 169.99565 144.13943 169.92002 143.40409 169.56242 C 129.29473 162.70102 115.28828 162.93366 101.91267 169.09609 C 90.81978 174.20682 80.62309 183.29504 73.218855 193.8215 C 73.84264 200.16736 74.09961 206.68863 74.00576 213.37182 C 73.65768 238.1605 68.588886 264.32404 60.07562 290.75797 Z M 1.0645625 180.71805 C 4.7345825 216.96706 20.455677 252.2266 48.227846 279.99863 C 50.529696 282.3005 52.882984 284.51957 55.28401 286.65586 C 63.18614 261.52186 67.86815 236.7154 68.19709 213.29026 C 68.287984 206.81717 67.08516 194.47312 67.08516 194.47312 L 67.08516 194.47312 C 67.08516 194.47312 68.47784 202.76909 67.11578 194.60272 C 65.75372 186.43636 59.099324 180.63943 51.996395 177.55458 C 46.968864 175.3711 41.724 173.82844 30.95292 171.37412 C 28.65259 172.99493 26.220163 170.18293 22.608307 170.50353 C 18.955182 170.82778 18.639586 172.1114 16.915244 172.88532 C 15.190905 173.65923 11.442261 173.23973 6.574782 176.31277 C 4.036982 177.915 2.5604474 179.44236 1.0645625 180.71805 Z" fill="black"/>
      </g>
    </g>
  </g>
</svg>
