<?xml version="1.0" encoding="UTF-8"?>
<svg width="1479px" height="328px" viewBox="0 0 1479 328" version="1.1" xmlns="http://www.w3.org/2000/svg" xmlns:xlink="http://www.w3.org/1999/xlink">
    <title>Group 2</title>
    <g id="Page-1" stroke="none" stroke-width="1" fill="none" fill-rule="evenodd">
        <g id="Group-2">
            <g id="Clarity-Lab" transform="translate(379.928000, 52.680000)" fill="#000000" fill-rule="nonzero">
                <path d="M47.304,210.24 C31.9253333,210.24 20.1966667,205.86 12.118,197.1 C4.03933333,188.34 0,175.978667 0,160.016 L0,50.224 C0,34.2613333 4.03933333,21.9 12.118,13.14 C20.1966667,4.38 31.9253333,0 47.304,0 C62.6826667,0 74.4113333,4.38 82.49,13.14 C90.5686667,21.9 94.608,34.2613333 94.608,50.224 L94.608,71.832 L64.24,71.832 L64.24,48.18 C64.24,35.5266667 58.8866667,29.2 48.18,29.2 C37.4733333,29.2 32.12,35.5266667 32.12,48.18 L32.12,162.352 C32.12,174.810667 37.4733333,181.04 48.18,181.04 C58.8866667,181.04 64.24,174.810667 64.24,162.352 L64.24,131.108 L94.608,131.108 L94.608,160.016 C94.608,175.978667 90.5686667,188.34 82.49,197.1 C74.4113333,205.86 62.6826667,210.24 47.304,210.24 Z" id="Path"></path>
                <polygon id="Path" points="113.88 2.92 146 2.92 146 178.12 198.852 178.12 198.852 207.32 113.88 207.32"></polygon>
                <path d="M240.316,2.92 L283.824,2.92 L317.112,207.32 L284.992,207.32 L279.152,166.732 L279.152,167.316 L242.652,167.316 L236.812,207.32 L207.028,207.32 L240.316,2.92 Z M275.356,139.576 L261.048,38.544 L260.464,38.544 L246.448,139.576 L275.356,139.576 Z" id="Shape"></path>
                <path d="M332.588,2.92 L380.184,2.92 C396.730667,2.92 408.8,6.76466667 416.392,14.454 C423.984,22.1433333 427.78,33.9693333 427.78,49.932 L427.78,62.488 C427.78,83.7066667 420.772,97.1386667 406.756,102.784 L406.756,103.368 C414.542667,105.704 420.042,110.473333 423.254,117.676 C426.466,124.878667 428.072,134.514667 428.072,146.584 L428.072,182.5 C428.072,188.34 428.266667,193.060667 428.656,196.662 C429.045333,200.263333 430.018667,203.816 431.576,207.32 L398.872,207.32 C397.704,204.010667 396.925333,200.896 396.536,197.976 C396.146667,195.056 395.952,189.8 395.952,182.208 L395.952,144.832 C395.952,135.488 394.443333,128.966667 391.426,125.268 C388.408667,121.569333 383.201333,119.72 375.804,119.72 L364.708,119.72 L364.708,207.32 L332.588,207.32 L332.588,2.92 Z M376.388,90.52 C382.812,90.52 387.63,88.8653333 390.842,85.556 C394.054,82.2466667 395.66,76.6986667 395.66,68.912 L395.66,53.144 C395.66,45.7466667 394.346,40.3933333 391.718,37.084 C389.09,33.7746667 384.953333,32.12 379.308,32.12 L364.708,32.12 L364.708,90.52 L376.388,90.52 Z" id="Shape"></path>
                <polygon id="Path" points="455.264 2.92 487.384 2.92 487.384 207.32 455.264 207.32"></polygon>
                <polygon id="Path" points="536.44 32.12 502.86 32.12 502.86 2.92 602.14 2.92 602.14 32.12 568.56 32.12 568.56 207.32 536.44 207.32"></polygon>
                <polygon id="Path" points="648.276 120.304 609.44 2.92 643.604 2.92 665.504 77.964 666.088 77.964 687.988 2.92 719.232 2.92 680.396 120.304 680.396 207.32 648.276 207.32"></polygon>
                <polygon id="Path" points="780.552 2.92 812.672 2.92 812.672 178.12 865.524 178.12 865.524 207.32 780.552 207.32"></polygon>
                <path d="M906.988,2.92 L950.496,2.92 L983.784,207.32 L951.664,207.32 L945.824,166.732 L945.824,167.316 L909.324,167.316 L903.484,207.32 L873.7,207.32 L906.988,2.92 Z M942.028,139.576 L927.72,38.544 L927.136,38.544 L913.12,139.576 L942.028,139.576 Z" id="Shape"></path>
                <path d="M999.26,2.92 L1047.732,2.92 C1064.27867,2.92 1076.348,6.76466667 1083.94,14.454 C1091.532,22.1433333 1095.328,33.9693333 1095.328,49.932 L1095.328,58.108 C1095.328,68.62 1093.62467,77.1853333 1090.218,83.804 C1086.81133,90.4226667 1081.604,95.192 1074.596,98.112 L1074.596,98.696 C1090.55867,104.146667 1098.54,118.357333 1098.54,141.328 L1098.54,158.848 C1098.54,174.616 1094.40333,186.636667 1086.13,194.91 C1077.85667,203.183333 1065.73867,207.32 1049.776,207.32 L999.26,207.32 L999.26,2.92 Z M1043.936,86.14 C1050.36,86.14 1055.178,84.4853333 1058.39,81.176 C1061.602,77.8666667 1063.208,72.3186667 1063.208,64.532 L1063.208,53.144 C1063.208,45.7466667 1061.894,40.3933333 1059.266,37.084 C1056.638,33.7746667 1052.50133,32.12 1046.856,32.12 L1031.38,32.12 L1031.38,86.14 L1043.936,86.14 Z M1049.776,178.12 C1055.42133,178.12 1059.60667,176.611333 1062.332,173.594 C1065.05733,170.576667 1066.42,165.369333 1066.42,157.972 L1066.42,140.16 C1066.42,130.816 1064.814,124.343333 1061.602,120.742 C1058.39,117.140667 1053.08533,115.34 1045.688,115.34 L1031.38,115.34 L1031.38,178.12 L1049.776,178.12 Z" id="Shape"></path>
            </g>
            <g id="Group-Copy-2">
                <circle id="Oval-Copy" fill="#FBE612" cx="164" cy="164" r="164"></circle>
                <path d="M130.622254,250.162026 L133.140989,323.907537 C107.642972,318.88768 84.2659814,307.958198 64.4957435,292.604816 C86.1729231,282.330204 99.2558523,275.310026 103.747454,271.542344 C109.340748,266.850531 118.299015,259.723758 130.622254,250.162026 Z M203.38379,88.5131171 C213.04408,89.2928867 218.89831,94.0071172 220.946481,102.655808 L211.240507,194.804515 C210.796312,198.063111 209.613978,200.72721 207.693505,202.796812 C205.773031,204.866415 202.873669,206.208207 198.995416,206.822189 L112,221.861749 L114.164083,230.997869 L130.228384,230.069317 C121.268101,242.56447 112.179761,252.016805 102.963363,258.426321 C93.7469648,264.835837 80.0524264,272.518081 61.8797475,281.473053 L54.3996836,284.094639 C52.3545646,282.225709 50.3569512,280.305661 48.4088655,278.336517 L55.1264177,194.172778 C55.9039473,182.93149 61.8156083,174.79136 72.8614007,169.752388 C83.9071931,164.713416 116.992106,161.584831 172.116139,160.366633 L182.580687,101.906464 C186.789133,92.1977964 193.7235,87.7333474 203.38379,88.5131171 Z M43.3679013,181.73272 L35.9542207,264.220035 C21.0408262,245.233388 10.2272217,222.873878 4.84700343,198.475101 C6.50746722,196.868509 8.35594748,195.206935 10.4400126,193.45272 C19.9518567,185.446341 30.9278196,181.539675 43.3679013,181.73272 Z M113,60 C138.957383,60 160,81.0426168 160,107 C160,132.957383 138.957383,154 113,154 C87.0426168,154 66,132.957383 66,107 C66,81.0426168 87.0426168,60 113,60 Z M239.722576,74.1423698 L239.722576,117.573906 L230.677363,113.796146 C232.307357,105.150372 231.909679,98.5792109 229.484327,94.0826625 C227.058975,89.5861142 222.329631,85.0221309 215.296296,80.3907128 L239.722576,74.1423698 Z M265.341436,74.1423698 L269.185317,77.3353838 L269.185317,114.607603 L265.341436,117.573906 L248.483554,117.573906 L248.483554,74.1423698 L265.341436,74.1423698 Z M175.286864,78.8426187 L176.960327,80.9466127 L187.960327,80.9466127 C182.687527,83.251352 178.627272,86.3524554 175.779559,90.2499229 C172.992437,94.0644656 171.10402,100.785361 170.114309,110.412609 L170.051037,111.044593 L165.960327,109.734273 L165.960327,80.9466127 L167.146637,78.8426187 L175.286864,78.8426187 Z" id="Combined-Shape-Copy" stroke="#000000" stroke-width="2" fill="#000000" stroke-linejoin="round"></path>
            </g>
        </g>
    </g>
</svg>